# xmcd
#
# Track frame offsets: 
#        150
#        16631
#        35664
#
# Disc length: 761 seconds
#
# Revision: 0
# Processed by: cddbd v1.5.2PL0 Copyright (c) Steve Scherf et al.
# Submitted via: ExactAudioCopy v0.99pb5
#
DISCID=1702f703
DTITLE=T. I. - Trouble Man: Heavy Is the Head Disk 2
DYEAR=2012
DGENRE=Hip-Hop
TTITLE0=Live On Tonight
TTITLE1=Parlay feat. D. O. P. E.
TTITLE2=Check This Dig That feat. Trae Tha Truth
EXTD=
EXTT0=
EXTT1=
EXTT2=
PLAYORDER=
